<svg xmlns="http://www.w3.org/2000/svg" data-name="Layer 1" width="652.05514" height="613.4514" viewBox="0 0 652.05514 613.4514" xmlns:xlink="http://www.w3.org/1999/xlink"><path d="M706.71307,420.77438H512.343A15.83308,15.83308,0,0,1,496.528,404.95944V304.58932A15.83308,15.83308,0,0,1,512.343,288.77438H706.71307a15.833,15.833,0,0,1,15.81445,15.81494V404.95944A15.833,15.833,0,0,1,706.71307,420.77438Zm-194.37012-130A13.83047,13.83047,0,0,0,498.528,304.58932V404.95944A13.83046,13.83046,0,0,0,512.343,418.77438H706.71307a13.83036,13.83036,0,0,0,13.81445-13.81494V304.58932a13.83037,13.83037,0,0,0-13.81445-13.81494Z" transform="translate(-273.97243 -143.2743)" fill="#3f3d56"/>

<path d="M665.43042,340.44314a24.88949,24.88949,0,0,0-20.69929-18.10187c-.10736-.01593-.2093.00512-.31621-.00214a2.95592,2.95592,0,0,0-.422-.10227c-22.60919-3.07477-48.70774,8.30377-58.13046,30.85855-4.66514-6.50225-12.10337-10.70319-20.05874-10.28555-10.14893.53288-19.10559,8.30674-21.8493,18.53164a3.08643,3.08643,0,0,0,1.27636,3.30048,12.30963,12.30963,0,0,0,5.16533,2.75892q6.15893,1.373,12.36171,2.5155,12.10359,2.22883,24.33353,3.604a343.98754,343.98754,0,0,0,49.841,1.98238c5.54121-.18171,10.88487-.37519,15.96183-2.9486a24.162,24.162,0,0,0,9.15669-8.40829A29.60815,29.60815,0,0,0,665.43042,340.44314Z" transform="translate(-273.97243 -143.2743)" fill="#3f3d56"/>

<circle cx="505.85792" cy="388.34558" r="10.81761" fill="#fff"/><path d="M779.02044,535.94323c-.02307,0-.04613-.00075-.06919-.00188a1.41466,1.41466,0,0,1-1.04865-.54485l-1.80781-2.32417a1.4152,1.4152,0,0,1,.24805-1.98631l.06506-.05062a1.41507,1.41507,0,0,1,1.98668.24824,1.03227,1.03227,0,0,0,1.56332.07612l3.67056-3.87511a1.41732,1.41732,0,0,1,2.00112-.05437l.06018.05737a1.415,1.415,0,0,1,.054,2.00093l-5.69624,6.01254A1.41374,1.41374,0,0,1,779.02044,535.94323Z" transform="translate(-273.97243 -143.2743)" fill="#fff"/><path d="M438.8077,477.69409a7.22487,7.22487,0,0,0-1.29031.1217l-7.08172-44.83143,7.0946-43.159a10.87013,10.87013,0,0,0-21.1015-5.00554v0a85.75783,85.75783,0,0,0-3.90085,26.29975l.24744,29.43344,18.87931,45.20373a7.2062,7.2062,0,1,0,7.153-8.0627Z" transform="translate(-273.97243 -143.2743)" fill="#ffb8b8"/><path d="M408.74306,391.56791a17.09523,17.09523,0,1,1,34.19045,0l-11.112,39.197-19.29664-.95881Z" transform="translate(-273.97243 -143.2743)" fill="#2f2e41"/>

<polygon points="175.317 592.125 186.35 592.124 191.599 549.567 175.315 549.568 175.317 592.125" fill="#ffb8b8"/><path d="M479.57266,747.83512l-16.57959-11.45v-7.47l-1.88037.11-11.81983.71-3.74023.22-2.12988,25.54-.06983.85H451.183l.15967-.85,1.24023-6.54,3.16992,6.54.41016.85h20.75977a4.67909,4.67909,0,0,0,4.66992-4.66A4.67073,4.67073,0,0,0,479.57266,747.83512Z" transform="translate(-273.97243 -143.2743)" fill="#2f2e41"/><polygon points="109.146 566.692 117.913 573.391 147.924 542.764 134.985 532.877 109.146 566.692" fill="#ffb8b8"/><path d="M399.63017,738.23554,393.40885,719.071l4.53562-5.93537-1.56085-1.05434-9.82272-6.61261-3.10542-2.09621-17.1997,18.99992-.57161.633,6.2215,4.75427.643-.57846,4.95639-4.44338-1.45224,7.12114-.19023.92445,16.495,12.60493a4.67907,4.67907,0,0,0,6.54-.86721A4.67074,4.67074,0,0,0,399.63017,738.23554Z" transform="translate(-273.97243 -143.2743)" fill="#2f2e41"/><path d="M427.8779,526.12421l11.03,33.85s3.92,36.12,8.11,44.12a18.39489,18.39489,0,0,1,1.6,5.13995c.12.6.21,1.23005.29,1.86005.16,1.25.27,2.54.34,3.84a102.51024,102.51024,0,0,1-.71,16.54c-1.98,1.72-3.43,17.23-4.44,36.36q-.165,2.985-.31,6.07c-.2,4.15-.38,8.41-.54,12.69-1.15,29.74-.50994,23.38-.50994,23.38,27.96,5.12994,26.81-4.12006,26.81-4.12006s9.6-42.88995,12.08-62.43c.3-2.28.48-3.74.52-4.16a23.7356,23.7356,0,0,1,1.13-6.08,19.23621,19.23621,0,0,0,1.45-2.43.0098.0098,0,0,0,.01-.01,36.08013,36.08013,0,0,0,3.28-13.66,46.74165,46.74165,0,0,0,.02-6.15,183.91841,183.91841,0,0,1,3.03-35.75c1.75-8.05.61005-23.61-.94-36.94-.63-5.5-1.34-10.62-1.93-14.67-.03-.17-.05-.34-.07-.51-.76-5.09-1.32-8.37-1.32-8.37s2.55-8.74.66-11.97c-.87-1.45-.75-4.87006-.38-8.25.46-4.12006,1.32-7.96,1.32-7.96l-51.93-9.15c-1.09,1.81-2.06,3.56-3.01,5.25C416.29794,514.34424,427.8779,526.12421,427.8779,526.12421Z" transform="translate(-273.97243 -143.2743)" fill="#2f2e41"/>

<path d="M413.03623,381.32164a10.10206,10.10206,0,0,1,7.27766-6.41168,22.67719,22.67719,0,0,1,7.54555-.82471c7.44627.29332,12.69432-13.71665,20.06761-12.63651,0,0,6.93987-2.4767,12.36985,2.06165,4.93284,4.12283,8.33337,15.33606,9.59931,14.69815a4.12273,4.12273,0,0,1,1.81932.00109,20.42424,20.42424,0,0,1,17.54018,21.51924l-.5367,9.095s3.79335,5.71066-1.7112,15.79211l3.19552,35.56332s5.32365,49.54415-2.67541,56.59493-37.46469-23.69108-37.46469-23.69108-22.63691-3.608-21.29679-7.79307S437.1367,469.498,437.1367,469.498a3.60807,3.60807,0,0,0-1.13388-3.60787c-1.7112-1.09273.20612-3.56673.35045-3.79348-.165.16484-1.46382,1.5256-2.45336-1.34011s2.06164-6.47359,2.06164-6.47359l-8.61765-18.55477-6.78275-14.65824-.82471-1.69057-5.71079-11.79253-.13238-.2739a29.20629,29.20629,0,0,1-1.88106-20.17607A22.51151,22.51151,0,0,0,413.03623,381.32164Z" transform="translate(-273.97243 -143.2743)" fill="#6c63ff"/><path d="M395.10794,684.57422c20.51,19.68,24.64,11.31,24.64,11.31s11.09-12.77,24.35-28.05c4.76-5.48,9.79-11.28,14.69-16.93,6.77-7.81,13.28-15.33,18.46-21.31,5.73005-6.63,9.81006-11.37,10.77-12.51a46.74165,46.74165,0,0,0,.02-6.15,183.91841,183.91841,0,0,1,3.03-35.75c1.75-8.05.61005-23.61-.94-36.94-2.32,4.83-5,10.56-7.22,15.85-2.48,5.88995-4.41,11.22-4.71,14.12-.95,8.93-13.8,23.69-13.8,23.69l-.15.03c-2.11.56-8.06,7.48-15.62994,17.3C427.9379,636.0542,395.10794,684.57422,395.10794,684.57422Z" transform="translate(-273.97243 -143.2743)" fill="#2f2e41"/><path d="M563.195,371.88968a7.22664,7.22664,0,0,0,.26759,1.26811l-43.73571,12.13239L476.04112,383.148a10.87013,10.87013,0,0,0-2.5742,21.53374h0a85.75777,85.75777,0,0,0,26.57271.88571l29.2145-3.59192,42.76441-23.89583a7.2062,7.2062,0,1,0-8.82361-6.19006Z" transform="translate(-273.97243 -143.2743)" fill="#ffb8b8"/>

<path d="M481.045,411.55053a17.09523,17.09523,0,1,1-3.88689-33.9688l40.20608,6.5839,1.24111,19.28054Z" transform="translate(-273.97243 -143.2743)" fill="#2f2e41"/><path d="M474.03838,346.45821a22.75479,22.75479,0,1,1,1.15624-19.38543c.10414.26042.19792.52084.29163.79168A22.72373,22.72373,0,0,1,474.03838,346.45821Z" transform="translate(-273.97243 -143.2743)" fill="#ffb6b6"/><path d="M477.30917,327.86446c-.97917-2.73959-.55205-1.31251-1.54165-4.04167a6.811,6.811,0,0,1-.28127,4.04167H448.39246v-15.75c7.93757-3.14586,15.69794-5.82295,20.38545,0a15.75068,15.75068,0,0,1,15.75,15.75Z" transform="translate(-273.97243 -143.2743)" fill="#2f2e41"/><path d="M467.705,371.64573c-.02086-.29163-.05208-.59376-.09378-.88539a30.67565,30.67565,0,0,0-1.76042-6.25c-.78126-2.1979-1.57293-4.4063-2.36455-6.6042a18.908,18.908,0,0,1-.88545,12c-4.57294-3.56248-1.68744-11.70833-7.66666-11.70833-14.375,0-29.16671-11.65627-29.16671-26.0417,0-14.37507,6.16666-25.125,20.54167-25.125,14.38549,0,26.05218,6.58329,26.33339,20.95836C454.93417,332.15613,471.04874,370.18743,467.705,371.64573Z" transform="translate(-273.97243 -143.2743)" fill="#2f2e41"/><circle cx="153.5913" cy="170.01183" r="16.66669" fill="#2f2e41"/><path d="M273.97243,755.5357a1.18647,1.18647,0,0,0,1.19006,1.19h280.29a1.19,1.19,0,0,0,0-2.38h-280.29A1.18651,1.18651,0,0,0,273.97243,755.5357Z" transform="translate(-273.97243 -143.2743)" fill="#ccc"/></svg>